<svg width="20" height="20" viewBox="0 0 20 20" fill="none" xmlns="http://www.w3.org/2000/svg">
<path d="M15.3031 12.9462L14.1246 11.7677L15.3031 10.5893C16.9303 8.96208 16.9303 6.32388 15.3031 4.6967C13.676 3.06951 11.0377 3.06951 9.41054 4.6967L8.23203 5.87521L7.05352 4.6967L8.23203 3.51818C10.5101 1.24012 14.2035 1.24012 16.4816 3.51818C18.7597 5.79624 18.7597 9.48967 16.4816 11.7677L15.3031 12.9462ZM12.946 15.3033L11.7675 16.4818C9.48954 18.7598 5.79605 18.7598 3.51799 16.4818C1.23993 14.2037 1.23993 10.5103 3.51799 8.23223L4.6965 7.05372L5.87502 8.23223L4.6965 9.41075C3.06932 11.0379 3.06932 13.6761 4.6965 15.3033C6.32368 16.9305 8.96187 16.9305 10.589 15.3033L11.7675 14.1248L12.946 15.3033ZM12.3568 6.46447L13.5354 7.64297L7.64278 13.5355L6.46427 12.357L12.3568 6.46447Z" fill="#504D5F"/>
</svg>
