<svg width="20" height="20" viewBox="0 0 20 20" fill="none" xmlns="http://www.w3.org/2000/svg">
<path d="M13.3333 3.33334C13.7935 3.33334 14.1666 3.70644 14.1666 4.16667V7.66667L18.511 4.62559C18.6995 4.49363 18.9593 4.53948 19.0913 4.728C19.1403 4.79804 19.1666 4.88145 19.1666 4.96694V15.0331C19.1666 15.2632 18.98 15.4498 18.7499 15.4498C18.6644 15.4498 18.581 15.4234 18.511 15.3744L14.1666 12.3333V15.8333C14.1666 16.2936 13.7935 16.6667 13.3333 16.6667H1.66659C1.20635 16.6667 0.833252 16.2936 0.833252 15.8333V4.16667C0.833252 3.70644 1.20635 3.33334 1.66659 3.33334H13.3333ZM12.4999 5H2.49992V15H12.4999V5ZM6.16659 7.35723C6.22998 7.35723 6.29206 7.3753 6.34554 7.40934L9.97467 9.71875C10.13 9.81759 10.1758 10.0237 10.0769 10.179C10.0508 10.2201 10.0158 10.255 9.97467 10.2813L6.34554 12.5907C6.19023 12.6895 5.9842 12.6438 5.88537 12.4884C5.85133 12.4349 5.83325 12.3728 5.83325 12.3094V7.69056C5.83325 7.50647 5.98249 7.35723 6.16659 7.35723ZM17.4999 7.36776L14.1666 9.70084V10.2992L17.4999 12.6323V7.36776Z" fill="#504D5F"/>
</svg>
