<svg xmlns="http://www.w3.org/2000/svg" width="29" height="29" viewBox="0 0 29 29" fill="none">
<path d="M22.5659 10.5112C22.3766 9.79943 21.8164 9.23788 21.1038 9.04543C19.8153 8.70007 14.6454 8.70007 14.6454 8.70007C14.6454 8.70007 9.4781 8.70007 8.18694 9.04543C7.47694 9.23525 6.91682 9.79679 6.72486 10.5112C6.38037 11.8031 6.38037 14.5001 6.38037 14.5001C6.38037 14.5001 6.38037 17.1971 6.72486 18.4889C6.91419 19.2007 7.47431 19.7622 8.18694 19.9547C9.4781 20.3001 14.6454 20.3001 14.6454 20.3001C14.6454 20.3001 19.8153 20.3001 21.1038 19.9547C21.8138 19.7649 22.3739 19.2033 22.5659 18.4889C22.9104 17.1971 22.9104 14.5001 22.9104 14.5001C22.9104 14.5001 22.9104 11.8031 22.5659 10.5112Z" fill="#FF3000"/>
<path d="M12.9939 16.9862L17.2882 14.5001L12.9939 12.014V16.9862Z" fill="white"/>
</svg>